<svg id="visual" viewBox="0 0 1920 1080" width="1920" height="1080" xmlns="http://www.w3.org/2000/svg" xmlns:xlink="http://www.w3.org/1999/xlink" version="1.1"><rect x="0" y="0" width="1920" height="1080" fill="#001220"></rect><path d="M0 763L45.7 759C91.3 755 182.7 747 274.2 740.3C365.7 733.7 457.3 728.3 548.8 721.8C640.3 715.3 731.7 707.7 823 710.8C914.3 714 1005.7 728 1097 726.7C1188.3 725.3 1279.7 708.7 1371.2 705.8C1462.7 703 1554.3 714 1645.8 722.5C1737.3 731 1828.7 737 1874.3 740L1920 743L1920 1081L1874.3 1081C1828.7 1081 1737.3 1081 1645.8 1081C1554.3 1081 1462.7 1081 1371.2 1081C1279.7 1081 1188.3 1081 1097 1081C1005.7 1081 914.3 1081 823 1081C731.7 1081 640.3 1081 548.8 1081C457.3 1081 365.7 1081 274.2 1081C182.7 1081 91.3 1081 45.7 1081L0 1081Z" fill="#fa7268"></path><path d="M0 769L45.7 777.7C91.3 786.3 182.7 803.7 274.2 814.2C365.7 824.7 457.3 828.3 548.8 824.5C640.3 820.7 731.7 809.3 823 798.7C914.3 788 1005.7 778 1097 780.2C1188.3 782.3 1279.7 796.7 1371.2 796.3C1462.7 796 1554.3 781 1645.8 778.8C1737.3 776.7 1828.7 787.3 1874.3 792.7L1920 798L1920 1081L1874.3 1081C1828.7 1081 1737.3 1081 1645.8 1081C1554.3 1081 1462.7 1081 1371.2 1081C1279.7 1081 1188.3 1081 1097 1081C1005.7 1081 914.3 1081 823 1081C731.7 1081 640.3 1081 548.8 1081C457.3 1081 365.7 1081 274.2 1081C182.7 1081 91.3 1081 45.7 1081L0 1081Z" fill="#ef5f67"></path><path d="M0 861L45.7 854.5C91.3 848 182.7 835 274.2 836C365.7 837 457.3 852 548.8 851.5C640.3 851 731.7 835 823 827.7C914.3 820.3 1005.7 821.7 1097 825.2C1188.3 828.7 1279.7 834.3 1371.2 843.5C1462.7 852.7 1554.3 865.3 1645.8 869C1737.3 872.7 1828.7 867.3 1874.3 864.7L1920 862L1920 1081L1874.3 1081C1828.7 1081 1737.3 1081 1645.8 1081C1554.3 1081 1462.7 1081 1371.2 1081C1279.7 1081 1188.3 1081 1097 1081C1005.7 1081 914.3 1081 823 1081C731.7 1081 640.3 1081 548.8 1081C457.3 1081 365.7 1081 274.2 1081C182.7 1081 91.3 1081 45.7 1081L0 1081Z" fill="#e34c67"></path><path d="M0 900L45.7 902.3C91.3 904.7 182.7 909.3 274.2 908.7C365.7 908 457.3 902 548.8 902.2C640.3 902.3 731.7 908.7 823 908.5C914.3 908.3 1005.7 901.7 1097 897.2C1188.3 892.7 1279.7 890.3 1371.2 889.8C1462.7 889.3 1554.3 890.7 1645.8 897.8C1737.3 905 1828.7 918 1874.3 924.5L1920 931L1920 1081L1874.3 1081C1828.7 1081 1737.3 1081 1645.8 1081C1554.3 1081 1462.7 1081 1371.2 1081C1279.7 1081 1188.3 1081 1097 1081C1005.7 1081 914.3 1081 823 1081C731.7 1081 640.3 1081 548.8 1081C457.3 1081 365.7 1081 274.2 1081C182.7 1081 91.3 1081 45.7 1081L0 1081Z" fill="#d53867"></path><path d="M0 1006L45.7 1003.7C91.3 1001.3 182.7 996.7 274.2 995C365.7 993.3 457.3 994.7 548.8 992.8C640.3 991 731.7 986 823 984.3C914.3 982.7 1005.7 984.3 1097 986C1188.3 987.7 1279.7 989.3 1371.2 985.7C1462.7 982 1554.3 973 1645.8 968.8C1737.3 964.7 1828.7 965.3 1874.3 965.7L1920 966L1920 1081L1874.3 1081C1828.7 1081 1737.3 1081 1645.8 1081C1554.3 1081 1462.7 1081 1371.2 1081C1279.7 1081 1188.3 1081 1097 1081C1005.7 1081 914.3 1081 823 1081C731.7 1081 640.3 1081 548.8 1081C457.3 1081 365.7 1081 274.2 1081C182.7 1081 91.3 1081 45.7 1081L0 1081Z" fill="#c62368"></path></svg>