<svg id="visual" viewBox="0 0 342 702" width="342" height="702" xmlns="http://www.w3.org/2000/svg" xmlns:xlink="http://www.w3.org/1999/xlink" version="1.1"><rect x="0" y="0" width="342" height="702" fill="#001220"></rect><path d="M0 492L8.2 486C16.3 480 32.7 468 49 469C65.3 470 81.7 484 98 491.3C114.3 498.7 130.7 499.3 146.8 493.8C163 488.3 179 476.7 195.2 472.5C211.3 468.3 227.7 471.7 244 475.5C260.3 479.3 276.7 483.7 293 477.8C309.3 472 325.7 456 333.8 448L342 440L342 703L333.8 703C325.7 703 309.3 703 293 703C276.7 703 260.3 703 244 703C227.7 703 211.3 703 195.2 703C179 703 163 703 146.8 703C130.7 703 114.3 703 98 703C81.7 703 65.3 703 49 703C32.7 703 16.3 703 8.2 703L0 703Z" fill="#fa7268"></path><path d="M0 506L8.2 506.7C16.3 507.3 32.7 508.7 49 515.7C65.3 522.7 81.7 535.3 98 535.7C114.3 536 130.7 524 146.8 517.8C163 511.7 179 511.3 195.2 509.3C211.3 507.3 227.7 503.7 244 501.7C260.3 499.7 276.7 499.3 293 507.8C309.3 516.3 325.7 533.7 333.8 542.3L342 551L342 703L333.8 703C325.7 703 309.3 703 293 703C276.7 703 260.3 703 244 703C227.7 703 211.3 703 195.2 703C179 703 163 703 146.8 703C130.7 703 114.3 703 98 703C81.7 703 65.3 703 49 703C32.7 703 16.3 703 8.2 703L0 703Z" fill="#eb5967"></path><path d="M0 597L8.2 597.7C16.3 598.3 32.7 599.7 49 596.5C65.3 593.3 81.7 585.7 98 582C114.3 578.3 130.7 578.7 146.8 574.8C163 571 179 563 195.2 559C211.3 555 227.7 555 244 559.8C260.3 564.7 276.7 574.3 293 577.2C309.3 580 325.7 576 333.8 574L342 572L342 703L333.8 703C325.7 703 309.3 703 293 703C276.7 703 260.3 703 244 703C227.7 703 211.3 703 195.2 703C179 703 163 703 146.8 703C130.7 703 114.3 703 98 703C81.7 703 65.3 703 49 703C32.7 703 16.3 703 8.2 703L0 703Z" fill="#da3f67"></path><path d="M0 616L8.2 619.2C16.3 622.3 32.7 628.7 49 628C65.3 627.3 81.7 619.7 98 617C114.3 614.3 130.7 616.7 146.8 621.2C163 625.7 179 632.3 195.2 635.2C211.3 638 227.7 637 244 633.8C260.3 630.7 276.7 625.3 293 622.8C309.3 620.3 325.7 620.7 333.8 620.8L342 621L342 703L333.8 703C325.7 703 309.3 703 293 703C276.7 703 260.3 703 244 703C227.7 703 211.3 703 195.2 703C179 703 163 703 146.8 703C130.7 703 114.3 703 98 703C81.7 703 65.3 703 49 703C32.7 703 16.3 703 8.2 703L0 703Z" fill="#c62368"></path></svg>